<svg xmlns="http://www.w3.org/2000/svg" width="1280" height="640" viewBox="0 0 1280 640">
  <rect width="1280" height="640" fill="#f3f5f7"/>
  <text x="80" y="90" font-family="Arial,sans-serif" font-size="32" font-weight="700" fill="#152238">C. Controlled diff</text>
  <g font-family="Arial,sans-serif">
    <g transform="translate(90 150)"><rect width="460" height="360" rx="24" fill="#fff" stroke="#d7dee8" stroke-width="2"/><text x="30" y="50" font-size="24" font-weight="700" fill="#152238">Источник</text><g fill="#c6ced8"><rect x="30" y="90" width="340" height="12" rx="6"/><rect x="30" y="130" width="285" height="12" rx="6"/><rect x="30" y="170" width="230" height="12" rx="6"/><rect x="30" y="210" width="340" height="12" rx="6"/><rect x="30" y="250" width="285" height="12" rx="6"/></g></g>
    <g transform="translate(730 150)"><rect width="460" height="360" rx="24" fill="#fff" stroke="#d7dee8" stroke-width="2"/><text x="30" y="50" font-size="24" font-weight="700" fill="#152238">Версия</text><g fill="#c6ced8"><rect x="30" y="90" width="340" height="12" rx="6"/><rect x="30" y="130" width="285" height="12" rx="6"/><rect x="30" y="170" width="230" height="12" rx="6"/><rect x="30" y="210" width="340" height="12" rx="6"/><rect x="30" y="250" width="285" height="12" rx="6"/></g></g>
  </g>
  <path d="M570 240h130" stroke="#22c55e" stroke-width="8" stroke-linecap="round"/><path d="M570 320h130" stroke="#ef4444" stroke-width="8" stroke-linecap="round"/><path d="M570 400h130" stroke="#f59e0b" stroke-width="8" stroke-linecap="round"/>
  <text x="640" y="580" text-anchor="middle" font-family="Arial,sans-serif" font-size="19" fill="#526273">Сохранилось • Изменилось • Добавлено</text>
</svg>
