<svg xmlns="http://www.w3.org/2000/svg" width="1280" height="640" viewBox="0 0 1280 640">
  <rect width="1280" height="640" fill="#f3f5f7"/>
  <text x="80" y="90" font-family="Arial,sans-serif" font-size="32" font-weight="700" fill="#152238">A. Evidence grid</text>
  <g font-family="Arial,sans-serif">
    <g transform="translate(80 150)"><rect width="330" height="330" rx="24" fill="#fff" stroke="#d7dee8" stroke-width="2"/><text x="30" y="50" font-size="24" font-weight="700" fill="#152238">Вычитка</text><g fill="#c6ced8"><rect x="30" y="90" width="180" height="12" rx="6"/><rect x="30" y="136" width="145" height="12" rx="6"/><rect x="30" y="182" width="180" height="12" rx="6"/><rect x="30" y="228" width="145" height="12" rx="6"/></g><g fill="none" stroke="#3b82f6" stroke-width="3"><rect x="240" y="86" width="30" height="30" rx="7"/><path d="m248 101 7 7 12-15"/></g></g>
    <g transform="translate(460 150)"><rect width="330" height="330" rx="24" fill="#fff" stroke="#d7dee8" stroke-width="2"/><text x="30" y="50" font-size="24" font-weight="700" fill="#152238">Теги</text><g fill="#eef7f6" stroke="#14b8a6"><rect x="30" y="95" width="150" height="34" rx="17"/><rect x="30" y="150" width="150" height="34" rx="17"/><rect x="30" y="205" width="150" height="34" rx="17"/></g><g fill="#2a4a4a" font-size="14" text-anchor="middle"><text x="105" y="117">Объект</text><text x="105" y="172">Канал</text><text x="105" y="227">Эффект</text></g></g>
    <g transform="translate(840 150)"><rect width="330" height="330" rx="24" fill="#fff" stroke="#d7dee8" stroke-width="2"/><text x="30" y="50" font-size="24" font-weight="700" fill="#152238">Сравнение</text><rect x="30" y="95" width="105" height="150" rx="12" fill="#eef1f5"/><rect x="195" y="95" width="105" height="150" rx="12" fill="#eef1f5"/><path d="M145 170h40m-12-12 12 12-12 12" fill="none" stroke="#f59e0b" stroke-width="4" stroke-linecap="round" stroke-linejoin="round"/><rect x="30" y="265" width="105" height="8" rx="4" fill="#22c55e"/><rect x="195" y="265" width="105" height="8" rx="4" fill="#ef4444"/></g>
  </g>
  <text x="80" y="560" font-family="Arial,sans-serif" font-size="20" fill="#526273">Три режима равноправны; одна доказательная линия</text>
</svg>
