<svg xmlns="http://www.w3.org/2000/svg" width="1280" height="640" viewBox="0 0 1280 640">
  <defs>
    <linearGradient id="bg" x1="0" y1="0" x2="1" y2="1"><stop stop-color="#071426"/><stop offset="1" stop-color="#0c2340"/></linearGradient>
    <linearGradient id="accent" x1="0" y1="0" x2="1" y2="0"><stop stop-color="#47b6ff"/><stop offset=".55" stop-color="#57e0d0"/><stop offset="1" stop-color="#ffbe66"/></linearGradient>
  </defs>
  <rect width="1280" height="640" fill="url(#bg)"/>
  <g fill="#2d8ac4"><circle cx="1080" cy="44" r="3.5"/><circle cx="1108" cy="44" r="3.5"/><circle cx="1136" cy="44" r="3.5"/><circle cx="1164" cy="44" r="3.5"/><circle cx="1192" cy="44" r="3.5"/><circle cx="1220" cy="44" r="3.5"/><circle cx="1080" cy="72" r="3.5"/><circle cx="1108" cy="72" r="3.5"/><circle cx="1136" cy="72" r="3.5"/><circle cx="1164" cy="72" r="3.5"/><circle cx="1192" cy="72" r="3.5"/><circle cx="1220" cy="72" r="3.5"/><circle cx="1080" cy="100" r="3.5"/><circle cx="1108" cy="100" r="3.5"/><circle cx="1136" cy="100" r="3.5"/><circle cx="1164" cy="100" r="3.5"/><circle cx="1192" cy="100" r="3.5"/><circle cx="1220" cy="100" r="3.5"/><circle cx="1080" cy="128" r="3.5"/><circle cx="1108" cy="128" r="3.5"/><circle cx="1136" cy="128" r="3.5"/><circle cx="1164" cy="128" r="3.5"/><circle cx="1192" cy="128" r="3.5"/><circle cx="1220" cy="128" r="3.5"/><circle cx="1080" cy="156" r="3.5"/><circle cx="1108" cy="156" r="3.5"/><circle cx="1136" cy="156" r="3.5"/><circle cx="1164" cy="156" r="3.5"/><circle cx="1192" cy="156" r="3.5"/><circle cx="1220" cy="156" r="3.5"/><circle cx="1080" cy="184" r="3.5"/><circle cx="1108" cy="184" r="3.5"/><circle cx="1136" cy="184" r="3.5"/><circle cx="1164" cy="184" r="3.5"/><circle cx="1192" cy="184" r="3.5"/><circle cx="1220" cy="184" r="3.5"/></g>
  <g font-family="DejaVu Sans,Arial,sans-serif"><text x="80" y="126" font-size="52" font-weight="700" fill="#f4f7fb">finuslugi-digest-editor</text><text x="82" y="174" font-size="24" fill="#a9b7c9">Вычитка • теги • сравнение</text></g>
  <rect x="82" y="205" width="500" height="5" rx="3" fill="url(#accent)"/>
  <g font-family="DejaVu Sans,Arial,sans-serif">
    <g transform="translate(80 290)"><rect width="318" height="250" rx="24" fill="#102844" stroke="#244665" stroke-width="1.5"/><text x="28" y="48" font-size="27" font-weight="700" fill="#f4f7fb">Вычитка</text><text x="28" y="80" font-size="16" fill="#a9b7c9">Редакторское ревью</text><rect x="28" y="104" width="92" height="4" rx="2" fill="#47b6ff"/><g fill="#5b7390"><rect x="28" y="137" width="165" height="10" rx="5"/><rect x="28" y="172" width="135" height="10" rx="5"/><rect x="28" y="207" width="165" height="10" rx="5"/></g><g fill="none" stroke="#47b6ff" stroke-width="2.5"><rect x="225" y="133" width="26" height="26" rx="7"/><path d="m232 146 7 7 10-13"/><rect x="225" y="168" width="26" height="26" rx="7"/><path d="m232 181 7 7 10-13"/><rect x="225" y="203" width="26" height="26" rx="7"/><path d="m232 216 7 7 10-13"/></g></g>
    <g transform="translate(426 290)"><rect width="318" height="250" rx="24" fill="#102844" stroke="#244665" stroke-width="1.5"/><text x="28" y="48" font-size="27" font-weight="700" fill="#f4f7fb">Теги</text><text x="28" y="80" font-size="16" fill="#a9b7c9">3 доказуемых смысла</text><rect x="28" y="104" width="92" height="4" rx="2" fill="#57e0d0"/><g fill="#0d3a46" stroke="#57e0d0"><rect x="28" y="132" width="150" height="28" rx="14"/><rect x="28" y="170" width="150" height="28" rx="14"/><rect x="28" y="208" width="150" height="28" rx="14"/></g><g fill="#f4f7fb" font-size="13" font-weight="600" text-anchor="middle"><text x="103" y="151">Объект</text><text x="103" y="189">Канал</text><text x="103" y="227">Эффект</text></g><g stroke="#57e0d0" stroke-width="3" stroke-linecap="round"><path d="M200 146h76"/><path d="M200 184h76"/><path d="M200 222h76"/></g></g>
    <g transform="translate(772 290)"><rect width="318" height="250" rx="24" fill="#102844" stroke="#244665" stroke-width="1.5"/><text x="28" y="48" font-size="27" font-weight="700" fill="#f4f7fb">Сравнение</text><text x="28" y="80" font-size="16" fill="#a9b7c9">Факты и версии</text><rect x="28" y="104" width="92" height="4" rx="2" fill="#ffbe66"/><rect x="28" y="132" width="115" height="84" rx="12" fill="#0d2338"/><rect x="174" y="132" width="115" height="84" rx="12" fill="#0d2338"/><g fill="#5b7390"><rect x="42" y="148" width="72" height="7" rx="4"/><rect x="42" y="167" width="62" height="7" rx="4"/><rect x="42" y="186" width="72" height="7" rx="4"/><rect x="188" y="148" width="72" height="7" rx="4"/><rect x="188" y="167" width="64" height="7" rx="4"/><rect x="188" y="186" width="72" height="7" rx="4"/></g><path d="M140 174h34m-10-10 10 10-10 10" fill="none" stroke="#ffbe66" stroke-width="3" stroke-linecap="round" stroke-linejoin="round"/><rect x="28" y="228" width="105" height="5" rx="3" fill="#7fe3a1"/><rect x="174" y="228" width="105" height="5" rx="3" fill="#ff7e84"/></g>
    <text x="80" y="598" font-size="18" fill="#a9b7c9">Доказательная редактура без выдуманных фактов</text>
  </g>
</svg>
